<?xml version="1.0" standalone="no"?>
<!DOCTYPE svg PUBLIC "-//W3C//DTD SVG 20010904//EN"
 "http://www.w3.org/TR/2001/REC-SVG-20010904/DTD/svg10.dtd">
<svg version="1.0" xmlns="http://www.w3.org/2000/svg"
 width="558.000000pt" height="558.000000pt" viewBox="0 0 558.000000 558.000000"
 preserveAspectRatio="xMidYMid meet">
<metadata>
Created by potrace 1.11, written by Peter Selinger 2001-2013
</metadata>
<g transform="translate(0.000000,558.000000) scale(0.100000,-0.100000)"
fill="#000000" stroke="none">
<path d="M0 2790 l0 -2790 2790 0 2790 0 0 2790 0 2790 -2790 0 -2790 0 0
-2790z m4502 1228 c41 -38 58 -81 58 -149 0 -50 -16 -131 -31 -161 -5 -10 -9
-29 -9 -43 0 -14 -4 -25 -10 -25 -5 0 -10 -10 -10 -21 0 -22 -45 -170 -61
-201 -5 -10 -9 -27 -9 -37 0 -11 -4 -23 -10 -26 -5 -3 -10 -15 -10 -26 0 -10
-4 -27 -9 -37 -5 -9 -17 -44 -27 -77 -10 -33 -22 -64 -26 -70 -4 -5 -8 -19 -8
-31 0 -13 -4 -26 -10 -29 -5 -3 -10 -15 -10 -26 0 -10 -4 -27 -9 -37 -5 -9
-16 -44 -26 -77 -9 -33 -21 -68 -26 -77 -5 -10 -9 -27 -9 -37 0 -11 -4 -22 -9
-25 -5 -3 -11 -20 -14 -38 -3 -18 -13 -60 -22 -93 -9 -33 -19 -75 -22 -93 -3
-18 -9 -35 -14 -38 -5 -3 -9 -20 -9 -38 0 -17 -4 -36 -10 -42 -5 -5 -10 -42
-11 -83 -2 -77 5 -91 47 -91 30 0 166 29 186 41 10 5 29 9 43 9 14 0 25 5 25
10 0 6 10 10 23 10 13 0 27 4 32 8 6 5 37 17 70 27 33 11 64 23 70 27 5 4 17
8 27 8 10 0 18 5 18 10 0 6 11 10 25 10 14 0 25 3 25 8 0 4 15 12 33 18 76 26
132 50 135 57 2 4 9 7 16 7 7 0 36 11 64 25 29 14 58 25 66 25 8 0 18 5 21 10
3 6 15 10 26 10 10 0 19 5 19 10 0 6 8 10 18 10 10 0 22 3 26 7 10 10 79 33
101 33 11 0 32 -11 48 -24 25 -22 27 -29 27 -100 0 -42 -4 -76 -9 -76 -5 0
-12 -8 -15 -18 -3 -9 -24 -28 -46 -42 -22 -14 -40 -28 -40 -32 0 -3 -13 -9
-30 -13 -16 -4 -32 -11 -35 -16 -4 -5 -17 -9 -31 -9 -13 0 -24 -4 -24 -10 0
-5 -6 -10 -13 -10 -6 0 -52 -16 -101 -35 -49 -19 -98 -35 -108 -35 -10 0 -18
-4 -18 -10 0 -5 -9 -10 -19 -10 -11 0 -22 -3 -25 -8 -2 -4 -34 -16 -70 -27
-36 -11 -66 -23 -66 -27 0 -5 -9 -8 -20 -8 -11 0 -28 -4 -38 -9 -28 -14 -64
-28 -117 -46 -27 -9 -58 -21 -67 -26 -10 -5 -27 -9 -38 -9 -11 0 -20 -4 -20
-10 0 -5 -13 -10 -30 -10 -16 0 -30 -4 -30 -9 0 -4 -17 -11 -37 -15 -21 -3
-60 -10 -88 -15 -27 -5 -70 -7 -95 -3 -41 5 -107 33 -120 51 -3 4 -26 22 -52
39 -26 18 -59 48 -73 67 -25 32 -26 38 -22 132 5 100 12 153 27 188 18 45 60
184 60 199 0 9 5 16 10 16 6 0 10 14 10 30 0 17 5 30 10 30 6 0 10 9 10 20 0
10 4 29 9 42 21 53 61 187 61 202 0 9 5 16 10 16 6 0 10 11 10 25 0 14 4 33 9
43 13 24 41 117 41 136 0 9 5 16 10 16 6 0 10 13 10 29 0 17 4 32 9 35 5 3 11
18 14 33 3 16 17 71 32 123 15 52 30 110 32 128 3 17 9 32 14 32 5 0 9 18 9
39 0 22 4 42 9 45 5 3 12 41 16 83 7 90 22 141 47 164 10 9 18 20 18 23 0 24
62 54 111 55 27 1 44 -7 71 -31z m-3152 -27 c47 -5 103 -14 125 -20 22 -6 55
-11 73 -11 17 0 32 -4 32 -10 0 -5 14 -10 30 -10 17 0 30 -4 30 -10 0 -5 11
-10 25 -10 14 0 25 -4 25 -10 0 -5 8 -10 18 -10 9 0 26 -7 36 -15 11 -8 28
-15 38 -15 10 0 18 -4 18 -10 0 -5 7 -10 15 -10 8 0 15 -4 15 -8 0 -5 12 -15
28 -23 15 -8 42 -29 61 -46 19 -18 38 -33 42 -33 10 0 69 -60 95 -97 11 -14
24 -30 29 -37 6 -6 16 -23 24 -38 8 -15 22 -37 33 -47 10 -11 18 -28 18 -38 1
-10 7 -29 15 -43 8 -14 14 -37 15 -52 0 -15 5 -30 10 -33 6 -4 10 -65 10 -151
0 -89 -4 -144 -10 -144 -5 0 -10 -11 -10 -25 0 -14 -7 -42 -15 -62 -8 -19 -15
-44 -15 -54 0 -11 -4 -19 -10 -19 -5 0 -10 -9 -10 -20 0 -11 -4 -20 -10 -20
-5 0 -10 -7 -10 -15 0 -9 -11 -33 -25 -55 -14 -22 -25 -44 -25 -50 0 -5 -4
-10 -10 -10 -5 0 -10 -7 -10 -15 0 -8 -4 -15 -8 -15 -4 0 -15 -12 -24 -27 -9
-16 -35 -48 -57 -73 -23 -24 -41 -48 -41 -52 0 -4 -5 -8 -10 -8 -6 0 -25 -14
-43 -31 -39 -38 -133 -109 -144 -109 -5 0 -15 -9 -23 -20 -8 -11 -22 -20 -32
-20 -10 0 -18 -4 -18 -8 0 -4 -22 -16 -50 -27 -27 -11 -50 -23 -50 -27 0 -4
-9 -8 -20 -8 -11 0 -20 -4 -20 -10 0 -5 -9 -10 -20 -10 -11 0 -20 -4 -20 -10
0 -5 -8 -10 -17 -10 -17 0 -125 -40 -165 -61 -10 -5 -27 -9 -37 -9 -11 0 -23
-4 -26 -10 -3 -5 -14 -10 -24 -10 -22 0 -118 -28 -143 -41 -10 -5 -27 -9 -37
-9 -11 0 -23 -4 -26 -10 -3 -5 -22 -10 -41 -10 -19 0 -34 -4 -34 -8 0 -12
-342 -55 -445 -55 -67 0 -155 16 -183 34 -28 17 -35 39 -27 81 12 59 135 135
223 137 18 1 49 6 70 13 32 10 40 18 51 52 7 22 15 62 18 88 3 26 10 48 14 48
5 0 9 15 9 34 0 19 5 38 10 41 6 3 10 19 10 36 0 16 4 37 9 47 13 25 41 146
41 176 0 13 5 28 10 31 6 3 10 22 10 41 0 19 4 34 9 34 5 0 11 17 14 38 2 20
14 71 25 112 12 41 22 92 22 113 0 20 5 37 10 37 6 0 10 16 10 35 0 19 5 35
10 35 6 0 10 14 10 30 0 17 4 38 9 48 12 23 41 153 41 186 0 14 5 26 10 26 6
0 10 15 10 34 0 19 5 38 10 41 6 3 10 21 10 40 0 31 -4 35 -37 44 -21 6 -54
11 -73 11 -47 0 -110 42 -110 74 0 8 -4 17 -9 20 -15 9 -21 65 -10 89 11 24
74 57 108 57 11 0 23 5 26 11 8 12 382 6 515 -10z m2058 -2224 c6 -5 12 -19
12 -32 0 -13 6 -25 13 -28 10 -4 10 -7 0 -18 -7 -7 -13 -24 -13 -36 0 -24 -6
-33 -47 -77 -20 -22 -29 -23 -245 -31 -460 -17 -1039 -5 -1065 21 -7 7 -13 17
-13 23 0 6 -4 11 -10 11 -18 0 -11 67 12 109 13 26 33 45 54 53 25 10 170 13
661 13 345 0 634 -4 641 -8z"/>
<path d="M1253 3756 c-7 -8 -13 -22 -13 -31 0 -8 -4 -15 -10 -15 -5 0 -10 -8
-10 -18 0 -11 -7 -33 -15 -50 -9 -16 -21 -53 -28 -81 -6 -28 -15 -51 -19 -51
-5 0 -8 -13 -8 -29 0 -17 -4 -33 -10 -36 -5 -3 -10 -15 -10 -26 0 -10 -4 -27
-9 -37 -16 -31 -41 -123 -41 -153 0 -16 -4 -29 -10 -29 -5 0 -10 -16 -10 -35
0 -19 -4 -35 -10 -35 -5 0 -10 -16 -10 -35 0 -19 -4 -35 -9 -35 -5 0 -11 -17
-15 -37 -15 -103 -31 -173 -38 -173 -4 0 -8 -15 -8 -34 0 -19 -4 -38 -10 -41
-5 -3 -10 -22 -10 -41 0 -19 -4 -34 -10 -34 -5 0 -10 -12 -10 -27 0 -16 -7
-50 -15 -77 -8 -27 -15 -64 -15 -83 0 -18 -4 -33 -10 -33 -5 0 -10 -20 -10
-45 0 -25 -5 -45 -11 -45 -6 0 -9 -12 -7 -27 3 -26 6 -28 43 -25 46 4 152 29
177 43 10 5 27 9 37 9 11 0 23 5 26 10 3 6 15 10 26 10 10 0 19 5 19 10 0 6 8
10 18 10 22 0 116 33 120 43 2 4 12 7 23 7 10 0 19 5 19 10 0 6 9 10 20 10 11
0 20 4 20 8 0 4 23 16 50 27 28 11 50 22 50 26 0 4 14 12 30 19 17 7 30 16 30
20 0 4 11 11 25 14 14 4 25 11 25 16 0 6 6 10 14 10 7 0 27 14 44 30 18 17 35
30 38 30 11 0 173 164 174 175 0 6 9 17 20 25 11 8 20 22 20 32 0 10 3 18 8
18 10 0 42 75 42 100 0 11 5 20 10 20 6 0 10 42 10 105 0 63 -4 105 -10 105
-5 0 -10 9 -10 20 0 26 -31 91 -52 111 -10 9 -18 22 -18 30 0 16 -135 146
-161 154 -10 4 -19 11 -19 16 0 5 -4 9 -9 9 -5 0 -35 16 -67 35 -32 19 -68 35
-81 35 -13 0 -23 5 -23 10 0 6 -9 10 -20 10 -11 0 -20 5 -20 10 0 6 -13 10
-29 10 -17 0 -32 4 -35 9 -3 4 -29 11 -58 15 -29 3 -69 8 -88 11 -24 4 -39 1
-47 -9z"/>
</g>
</svg>
